<svg id="Capa_1" data-name="Capa 1" xmlns="http://www.w3.org/2000/svg" viewBox="0 0 1920 704.85"><defs><style>.cls-1{fill:#fefefe;}.cls-2{fill:#18b4b0;}</style></defs><title>bg</title><path class="cls-1" d="M1234.81,181.87q-15.33,5.35-30.45,12a310,310,0,0,0-48.69,27c-35.07,23.62-73.12,39.4-114.89,44.25-44,5.11-85.8-3.71-125.9-22.72-24.55-11.65-45.39-28.8-66.43-45.81q-9.19-7.46-18.45-14.72Z" transform="translate(0 -0.02)"/><path class="cls-1" d="M1920,181.87V417.93c-2.22,2-5.23,3-8.08,4.09-24.77,9.34-49.57,7.83-74.27-.23-28-9.12-52-25.5-74.73-44.24-18.64-15.38-34.52-33.68-51.2-51.19q-10.53-11.06-21.48-21.49c-43.45-41.49-91.94-75.82-145.84-102.13a439.77,439.77,0,0,0-50.31-20.87Z" transform="translate(0 -0.02)"/><rect class="cls-2" y="696.85" width="1920" height="8"/><path class="cls-2" d="M1920,417.93V696.87H0V137.15c4.67,2.6,13.77,4.62,17.32,4,47.4-8.09,88.86-29.85,126.24-60.14a328.29,328.29,0,0,1,56.33-37.14c52-26.77,107.6-40,165.34-43.23,31-1.76,62,.32,92.83,4.89C523,15.16,584.62,36,643.85,64.53c66.29,32,127.87,71.93,186.15,117.34q9.3,7.24,18.49,14.68c21,17,41.88,34.16,66.43,45.81,40.1,19,81.88,27.83,125.9,22.72,41.77-4.85,79.82-20.63,114.89-44.25a310,310,0,0,1,48.69-27q15.12-6.65,30.45-12a386.25,386.25,0,0,1,168-20,404.87,404.87,0,0,1,91.3,20,439.77,439.77,0,0,1,50.31,20.87c53.9,26.31,102.39,60.64,145.84,102.13q11,10.44,21.48,21.49c16.68,17.51,32.56,35.81,51.2,51.19,22.71,18.74,46.73,35.12,74.73,44.24,24.7,8.06,49.5,9.57,74.27.23C1914.77,420.94,1917.78,420,1920,417.93Z" transform="translate(0 -0.02)"/></svg>