<svg id="Capa_1" data-name="Capa 1" xmlns="http://www.w3.org/2000/svg" viewBox="0 0 1915.61 485.64"><defs><style>.cls-1{fill:#fff;}</style></defs><title>figure</title><path class="cls-1" d="M1918,0V477.08c-31.7,13.85-63.06,9.86-94-4.56-37.06-17.25-67.82-43.91-94.77-75.29-29.25-34.05-62-63.69-97.22-90.23-71.44-53.77-149.57-89.18-237.91-95.87-67.78-5.14-132.51,7.55-194.63,36.63-23.18,10.85-43.61,26.64-65.74,39.36-85.87,49.38-187.66,40.47-262-23.06-29.84-25.49-60.52-49.76-92.38-72.34C705.62,139.5,627.83,96.19,542.34,70c-84-25.73-168.81-33.16-254.71-11.7-49.79,12.45-96.26,33.1-137,66.49-20.61,16.91-42,32.2-65.65,43.83-24.28,11.95-49.45,20.83-76.44,22.6l-.63,0c-5.47.31-5.56-3.6-5.55-8.29q.18-91.48.13-183Z" transform="translate(-2.39)"/></svg>